<?xml version="1.0" encoding="utf-8"?>
<!-- Generator: Adobe Illustrator 26.5.0, SVG Export Plug-In . SVG Version: 6.00 Build 0)  -->
<svg version="1.1" id="Layer_1" xmlns="http://www.w3.org/2000/svg" xmlns:xlink="http://www.w3.org/1999/xlink" x="0px" y="0px"
	 viewBox="0 0 384 512" style="enable-background:new 0 0 384 512;" xml:space="preserve">
<style type="text/css">
	.st0{fill:#A259FF;}
	.st1{fill:#1ABCFE;}
	.st2{fill:#0ACF83;}
	.st3{fill:#F24E1E;}
	.st4{fill:#FF7262;}
</style>
<g>
	<path class="st0" d="M184.4,178.7h-79.8c-42.7,0-77.3,34.6-77.3,77.3c0,42.5,34.3,77,76.8,77.3c0.2,0,0.3,0,0.5,0h79.8V178.7z"/>
	<path class="st1" d="M199.6,256c0,42.7,34.6,77.3,77.3,77.3h2.5c42.7,0,77.3-34.6,77.3-77.3c0-42.7-34.6-77.3-77.3-77.3h-2.5
		C234.2,178.7,199.6,213.3,199.6,256z"/>
	<path class="st2" d="M104.6,348.9c-0.2,0-0.3,0-0.5,0c-42.5,0.3-76.8,34.8-76.8,77.3c0,42.5,35.1,77.3,77.9,77.3
		c43.5,0,79.2-35.3,79.2-78.5v-76H104.6z"/>
	<path class="st3" d="M104.6,8.5c-42.7,0-77.3,34.6-77.3,77.3c0,42.7,34.6,77.3,77.3,77.3h79.8V8.5H104.6z"/>
	<path class="st4" d="M199.6,163.1h79.8c42.7,0,77.3-34.6,77.3-77.3c0-42.7-34.6-77.3-77.3-77.3h-79.8V163.1z"/>
</g>
</svg>
